<?xml version="1.0" encoding="UTF-8"?>
<svg id="Layer_1" data-name="Layer 1" xmlns="http://www.w3.org/2000/svg" viewBox="0 0 45.75 45.75">
  <path fill="currentColor" d="M24.28906,22.875L45.45703,1.70703c.39062-.39062.39062-1.02344,0-1.41406s-1.02344-.39062-1.41406,0l-21.16797,21.16797L1.70703.29297C1.31641-.09766.68359-.09766.29297.29297S-.09766,1.31641.29297,1.70703l21.16797,21.16797L.29297,44.04297c-.39062.39062-.39062,1.02344,0,1.41406.19531.19531.45117.29297.70703.29297s.51172-.09766.70703-.29297l21.16797-21.16797,21.16797,21.16797c.19531.19531.45117.29297.70703.29297s.51172-.09766.70703-.29297c.39062-.39062.39062-1.02344,0-1.41406l-21.16797-21.16797Z"/>
</svg>