<?xml version="1.0" encoding="UTF-8"?>
<svg id="Layer_1" data-name="Layer 1" xmlns="http://www.w3.org/2000/svg" viewBox="0 0 45.76001 45.76001">
  <path fill="currentColor" d="M38.46002,2.89001v-1.89001c0-.54999-.44-1-1-1-.54999,0-1,.45001-1,1v1.89001c.32001-.06.65997-.09003,1-.09003.33997,0,.67999.03003,1,.09003Z"/>
  <path fill="currentColor" d="M44.76001,23.88c.54999,0,1-.45001,1-1s-.45001-1-1-1h-6.29999v-8.17004c-.32001.06006-.66003.09003-1,.09003-.34003,0-.67999-.02997-1-.09003v8.17004h-12.58002v-12.58002h8.16998c-.06-.32001-.08997-.65997-.08997-1s.02997-.67999.08997-1h-8.16998V1c0-.54999-.45001-1-1-1s-1,.45001-1,1v6.29999h-12.58002V1c0-.54999-.45001-1-1-1-.56,0-1,.45001-1,1v6.29999H1c-.54999,0-1,.44-1,1,0,.54999.45001,1,1,1h6.29999v12.58002H1c-.54999,0-1,.45001-1,1s.45001,1,1,1h6.29999v12.57996H1c-.54999,0-1,.45001-1,1,0,.56006.45001,1,1,1h6.29999v6.30005c0,.54999.44,1,1,1,.54999,0,1-.45001,1-1v-6.30005h12.58002v6.30005c0,.54999.45001,1,1,1s1-.45001,1-1v-6.30005h12.58002v6.30005c0,.54999.45001,1,1,1,.56,0,1-.45001,1-1v-6.30005h6.29999c.54999,0,1-.43994,1-1,0-.54999-.45001-1-1-1h-6.29999v-12.57996h6.29999ZM21.88,36.45996h-12.58002v-12.57996h12.58002v12.57996ZM21.88,21.88h-12.58002v-12.58002h12.58002v12.58002ZM36.46002,36.45996h-12.58002v-12.57996h12.58002v12.57996Z"/>
  <path fill="currentColor" d="M44.76001,9.29999c.54999,0,1-.45001,1-1,0-.56-.45001-1-1-1h-1.89001c.06.32001.09003.65997.09003,1s-.03003.67999-.09003,1h1.89001Z"/>
  <path fill="currentColor" d="M36.46002,12.67999c.32001.08002.65997.12,1,.12.33997,0,.67999-.03998,1-.12,1.67999-.38,3-1.70001,3.38-3.38.07996-.32001.12-.65997.12-1s-.04004-.67999-.12-1c-.38-1.67999-1.70001-3-3.38-3.38-.32001-.08002-.66003-.12-1-.12-.34003,0-.67999.03998-1,.12-1.67999.38-3,1.70001-3.38,3.38-.08002.32001-.12.65997-.12,1s.03998.67999.12,1c.38,1.67999,1.70001,3,3.38,3.38ZM35.16998,7.29999c.25-.58002.71002-1.03998,1.29004-1.28998.31-.14001.64996-.21002,1-.21002.34998,0,.69.07001,1,.21002.57996.25,1.03998.70996,1.28998,1.28998.14001.31.21002.65002.21002,1s-.08002.69-.21002,1c-.25.58002-.71997,1.03998-1.28998,1.28998-.31.14001-.65002.21002-1,.21002-.35004,0-.69-.07001-1-.21002-.57001-.25-1.04004-.70996-1.29004-1.28998-.13-.31-.20996-.65002-.20996-1s.07001-.69.20996-1Z"/>
</svg>