<?xml version="1.0" encoding="UTF-8"?>
<svg id="Layer_2" data-name="Layer 2" xmlns="http://www.w3.org/2000/svg" viewBox="0 0 43.75 43.75">
  <defs>
    <style>
      .cls-1 {
        fill: none;
      }
    </style>
  </defs>
  <g id="Layer_1-2" data-name="Layer 1">
    <g>
      <path fill="currentColor" d="M40.62071,28.96497v-14.17999c1.86957-1.08002,3.12929-3.09998,3.12929-5.40997,0-3.45001-2.79935-6.25-6.25858-6.25-2.30947,0-4.32903,1.26001-5.39879,3.13H11.65737c-1.06976-1.87-3.08932-3.13-5.39879-3.13C2.79935,3.125,0,5.92499,0,9.375c0,2.31,1.25972,4.32996,3.12929,5.40997v14.17999c-1.86957,1.08002-3.12929,3.10004-3.12929,5.41003,0,3.45001,2.79935,6.25,6.25858,6.25,2.30947,0,4.32903-1.26001,5.39879-3.13h20.43527c1.06976,1.87,3.08932,3.13,5.39879,3.13,3.45923,0,6.25858-2.79999,6.25858-6.25,0-2.31-1.25972-4.33002-3.12929-5.41003ZM39.12105,28.34497c-.5199-.14996-1.06976-.21997-1.62963-.21997s-1.09972.07001-1.61962.20996v-12.91998c.5199.14001,1.05976.21002,1.61962.21002s1.10973-.07001,1.62963-.22003v12.94ZM32.09263,31.255H11.65737c-.53992-.95001-1.32971-1.73999-2.27951-2.29004v-14.17999c.94979-.54999,1.73959-1.33997,2.27951-2.28998h20.43527c.53992.95001,1.32971,1.73999,2.27951,2.28998v14.17999c-.94979.55005-1.73959,1.34003-2.27951,2.29004ZM37.49142,4.625c2.6194,0,4.75892,2.13,4.75892,4.75,0,1.41998-.62986,2.70001-1.62963,3.57001-.42989.38-.93979.69-1.49966.88995-.50989.19-1.05976.29004-1.62963.29004s-1.10973-.10004-1.61962-.29004c-.55987-.19995-1.05976-.5-1.49966-.88995-.15994-.14001-.30993-.29004-.44991-.45001-.37992-.42999-.67984-.94-.8798-1.5-.18996-.5-.28991-1.04999-.28991-1.62s.09995-1.12.28991-1.62c.19997-.56.49989-1.07001.8798-1.5.8698-1,2.14953-1.63,3.56919-1.63ZM31.47278,7.755c-.14993.51996-.21992,1.06-.21992,1.62s.06999,1.09998.21992,1.62H12.27722c.14993-.52002.21992-1.06.21992-1.62s-.06999-1.10004-.21992-1.62h19.19556ZM1.49966,9.375c0-2.62,2.13953-4.75,4.75892-4.75,1.41966,0,2.69939.63,3.56919,1.63.37992.42999.67984.94.8798,1.5.18996.5.28991,1.04999.28991,1.62s-.09995,1.12-.28991,1.62c-.19997.56-.49989,1.07001-.8798,1.5-.13998.15997-.28997.31-.44991.45001-.4399.38995-.93979.69-1.49966.88995-.50989.19-1.04975.29004-1.61962.29004s-1.11974-.10004-1.62963-.29004c-.55987-.19995-1.06976-.50995-1.49966-.88995-.99977-.87-1.62963-2.15002-1.62963-3.57001ZM4.62895,15.40497c.5199.15002,1.06976.22003,1.62963.22003s1.09972-.07001,1.61962-.21002v12.91998c-.5199-.13995-1.05976-.20996-1.61962-.20996s-1.10973.07001-1.62963.21997v-12.94ZM6.25858,39.125c-2.6194,0-4.75892-2.13-4.75892-4.75,0-1.42004.62986-2.70001,1.62963-3.57001.42989-.38.93979-.69,1.49966-.89001.50989-.19,1.05976-.28998,1.62963-.28998s1.10973.09998,1.61962.28998c.55987.20001,1.05976.5,1.49966.89001.15994.14001.30993.28998.44991.45001.37992.42999.67984.94.8798,1.5.18996.5.28991,1.04999.28991,1.62s-.09995,1.12-.28991,1.62c-.19997.56-.49989,1.07001-.8798,1.5-.8698,1-2.14953,1.63-3.56919,1.63ZM12.27722,35.995c.14993-.52002.21992-1.06.21992-1.62s-.06999-1.10004-.21992-1.62h19.19556c-.14993.51996-.21992,1.06-.21992,1.62s.06999,1.09998.21992,1.62H12.27722ZM37.49142,39.125c-1.41966,0-2.69939-.63-3.56919-1.63-.37992-.42999-.67984-.94-.8798-1.5-.18996-.5-.28991-1.04999-.28991-1.62s.09995-1.12.28991-1.62c.19997-.56.49989-1.07001.8798-1.5.13998-.16003.28997-.31.44991-.45001.4399-.39001.93979-.69,1.49966-.89001.50989-.19,1.04975-.28998,1.61962-.28998s1.11974.09998,1.62963.28998c.55987.20001,1.06976.51001,1.49966.89001.99977.87,1.62963,2.14996,1.62963,3.57001,0,2.62-2.13953,4.75-4.75892,4.75Z"/>
      <rect class="cls-1" x="0" width="43.75" height="43.75"/>
    </g>
  </g>
</svg>