<svg width="25" height="24" viewBox="0 0 25 24" fill="none" xmlns="http://www.w3.org/2000/svg">
<path d="M4.99945 20.2504C4.90098 20.2504 4.80348 20.231 4.71252 20.1932C4.62157 20.1555 4.53893 20.1001 4.46942 20.0304C4.39973 19.9607 4.34448 19.878 4.30676 19.787C4.26904 19.696 4.24963 19.5984 4.24963 19.4999C4.24963 19.4013 4.26904 19.3038 4.30676 19.2127C4.34448 19.1217 4.39973 19.039 4.46942 18.9694L19.4694 3.96936C19.5391 3.89967 19.6218 3.84439 19.7128 3.80667C19.8039 3.76895 19.9014 3.74951 19.9999 3.74951C20.0985 3.74951 20.196 3.76895 20.287 3.80667C20.3781 3.84439 20.4608 3.89967 20.5305 3.96936C20.6002 4.03901 20.6555 4.12171 20.6932 4.21274C20.7309 4.30376 20.7503 4.40135 20.7503 4.49988C20.7503 4.59841 20.7309 4.69596 20.6932 4.78699C20.6555 4.87801 20.6002 4.96071 20.5305 5.03036L5.53046 20.0304C5.46083 20.1002 5.37806 20.1556 5.28693 20.1934C5.19579 20.2311 5.09809 20.2505 4.99945 20.2504Z" fill="currentColor"/>
</svg>
