<?xml version="1.0" encoding="UTF-8"?>
<svg id="Layer_2" data-name="Layer 2" xmlns="http://www.w3.org/2000/svg" viewBox="0 0 30 30">
  <defs>
    <style>
      .cls-1 {
        fill: currentColor;
      }
    </style>
  </defs>
  <g id="Layer_1-2" data-name="Layer 1">
    <path class="cls-1" d="M24,0c-3.31372,0-6,2.68628-6,6,0,.57422.08551,1.12762.23615,1.65344l-12.42206,13.56439c-.41827-.12848-.8537-.21783-1.31409-.21783-2.48529,0-4.5,2.01471-4.5,4.5s2.01471,4.5,4.5,4.5,4.5-2.01471,4.5-4.5c0-.46039-.08936-.89575-.21783-1.31403l13.56433-12.42212c.52582.15063,1.07928.23615,1.6535.23615,3.31372,0,6-2.68628,6-6S27.31372,0,24,0Z"/>
  </g>
</svg>