<?xml version="1.0" encoding="UTF-8"?>
<svg id="Layer_1" data-name="Layer 1" xmlns="http://www.w3.org/2000/svg" viewBox="0 0 50 50">
  <path fill="currentColor" d="M42.5,0c-4.14001,0-7.5,3.35999-7.5,7.5,0,.33997.02002.66998.07001.98999l-26.58002,26.58002c-.32001-.05005-.64996-.07001-.98999-.07001-4.14001,0-7.5,3.35999-7.5,7.5s3.35999,7.5,7.5,7.5,7.5-3.35999,7.5-7.5c0-.34003-.02002-.67004-.07001-.98999l26.58002-26.58002c.32001.04999.64996.07001.98999.07001,4.14001,0,7.5-3.35999,7.5-7.5s-3.35999-7.5-7.5-7.5ZM7.5,48c-3.03003,0-5.5-2.47003-5.5-5.5,0-2.67999,1.92999-4.91003,4.46002-5.40002.33997-.07001.67999-.09998,1.03998-.09998.67999,0,1.32001.12,1.91998.34998,1.48999.54999,2.67999,1.73999,3.23004,3.22998.22998.60004.34998,1.24005.34998,1.92004,0,.35999-.03003.70001-.09998,1.03998-.49005,2.53003-2.72003,4.46002-5.40002,4.46002ZM14.28003,39.32996c-.73004-1.58997-2.02002-2.87994-3.61005-3.60999l25.04999-25.04999c.73004,1.59003,2.02002,2.88,3.61005,3.60999l-25.04999,25.04999ZM43.53998,12.89996c-.33997.07001-.67999.10004-1.03998.10004-.67999,0-1.32001-.12-1.91998-.35004-1.48999-.54999-2.67999-1.73999-3.23004-3.22998-.22998-.59998-.34998-1.23999-.34998-1.91998,0-.35999.03003-.70001.09998-1.04004.49005-2.52997,2.72003-4.45996,5.40002-4.45996,3.03003,0,5.5,2.46997,5.5,5.5,0,2.67999-1.92999,4.90997-4.46002,5.39996Z"/>
</svg>