<?xml version="1.0" encoding="UTF-8"?>
<svg id="Layer_2" data-name="Layer 2" xmlns="http://www.w3.org/2000/svg" viewBox="0 0 525 525">
  <g id="Layer_1-2" data-name="Layer 1">
    <path fill="currentColor" d="M450,0c-41.42004,0-75,33.58002-75,75,0,6.60004.84998,12.98999,2.44995,19.09003L94.08997,377.45001c-6.08997-1.59998-12.48999-2.45001-19.08997-2.45001-41.42004,0-75,33.58002-75,75,0,41.42999,33.57996,75,75,75,41.42999,0,75-33.57001,75-75,0-6.83997-.92004-13.46997-2.63-19.76996L430.22998,147.37c6.29999,1.71002,12.92999,2.63,19.77002,2.63,41.42999,0,75-33.57001,75-75,0-41.41998-33.57001-75-75-75ZM144,450c0,38.04999-30.95001,69-69,69-38.04004,0-69-30.95001-69-69,0-38.03998,30.95996-69,69-69,4.82996,0,9.53998.5,14.08997,1.45001,2.28003.47003,4.52002,1.06,6.72003,1.76001,21.12,6.69,37.87,23.29999,44.76996,44.33002.72003,2.16998,1.32001,4.39996,1.82001,6.65997,1.04999,4.77002,1.60004,9.72003,1.60004,14.79999ZM145.29999,423.82001c-7.66003-20.57001-24.09003-36.87-44.75-44.34998L379.46997,100.54999c7.47998,20.66003,23.78003,37.09003,44.35004,44.75L145.29999,423.82001ZM450,144c-5.08002,0-10.03003-.54999-14.80005-1.59998-2.25995-.5-4.48999-1.10004-6.65997-1.82001-21.03003-6.90002-37.64001-23.65002-44.33002-44.77002-.70001-2.19-1.28998-4.44-1.76001-6.71997-.94995-4.54999-1.44995-9.26001-1.44995-14.09003,0-38.03998,30.95996-69,69-69,38.04999,0,69,30.96002,69,69,0,38.04999-30.95001,69-69,69Z"/>
    <g>
      <path fill="currentColor" d="M75.00403,420.00389c16.56854,0,30,13.43145,30,30s-13.43146,30-30,30-30-13.43146-30-30,13.43146-30,30-30M75.00403,416.00389c-18.74765,0-34,15.25235-34,34s15.25235,34,34,34,34-15.25234,34-34-15.25235-34-34-34h0Z"/>
      <path fill="currentColor" d="M76.49146,439.37107h-11.28418v-2.604c1.65332-.12402,3.15137-.28906,4.49512-.49609,1.34277-.20654,2.52051-.59863,3.53418-1.17822,1.0127-.57812,1.86035-1.41504,2.54199-2.51074.68164-1.09473,1.1875-2.57324,1.51855-4.43311h3.16211v43.70996h-3.96777v-32.48779Z"/>
    </g>
    <g>
      <path fill="currentColor" d="M450.00792,45c16.56854,0,30,13.43146,30,30s-13.43146,30-30,30-30-13.43146-30-30,13.43146-30,30-30M450.00792,41c-18.74765,0-34,15.25235-34,34s15.25235,34,34,34,34-15.25235,34-34-15.25235-34-34-34h0Z"/>
      <path fill="currentColor" d="M436.83262,67.4668c0-2.14844.33057-4.10156.99219-5.85889.66064-1.75635,1.61182-3.26465,2.85205-4.52588,1.23975-1.26025,2.73779-2.23193,4.49512-2.91406,1.75635-.68213,3.70898-1.02295,5.85889-1.02295,2.19043,0,4.12305.3208,5.79688.96094,1.67383.64111,3.07861,1.49854,4.21582,2.57324,1.13672,1.0752,1.99414,2.35596,2.57324,3.84375.57812,1.48779.86816,3.05957.86816,4.71191,0,1.94336-.3208,3.6582-.96094,5.146-.6416,1.48828-1.48828,2.81152-2.54248,3.96826-1.05371,1.15771-2.25293,2.19141-3.5957,3.1001-1.34375.90918-2.71826,1.7666-4.12305,2.57275-1.40576.80615-2.79004,1.58105-4.15381,2.3252-1.36426.74365-2.58398,1.5293-3.6582,2.35596-.70312.5376-1.38525,1.10596-2.0459,1.70508-.66162.59961-1.26123,1.25049-1.79834,1.95264-.5376.70361-.97119,1.47852-1.30176,2.3252-.33154.84766-.51709,1.78809-.55811,2.8208h24.36621v3.34814h-28.58203c.04053-2.10791.26807-4.00879.68213-5.7041.4126-1.69434,1.32227-3.34766,2.72803-4.95996,1.52832-1.73584,3.10938-3.22412,4.74268-4.46387,1.63232-1.24023,3.23389-2.34521,4.80518-3.31689,1.57031-.9707,3.05811-1.86035,4.46387-2.66602,1.40479-.80615,2.64453-1.68408,3.72021-2.63525,1.07422-.9502,1.92188-2.02441,2.54199-3.22412.61963-1.19824.92969-2.66602.92969-4.40186,0-1.40479-.24805-2.66602-.74365-3.78174-.49609-1.11621-1.17822-2.06641-2.04639-2.85205-.86768-.78467-1.88135-1.37402-3.0376-1.76709-1.15771-.39258-2.41797-.58887-3.78223-.58887-1.44727,0-2.75879.30029-3.93701.89893-1.17773.59961-2.19141,1.39502-3.03809,2.38672-.84766.99219-1.49854,2.1499-1.95312,3.47217-.45508,1.32324-.64111,2.72803-.55762,4.21582h-4.21631Z"/>
    </g>
  </g>
</svg>