<?xml version="1.0" encoding="UTF-8"?>
<svg id="Layer_2" data-name="Layer 2" xmlns="http://www.w3.org/2000/svg" viewBox="0 0 1200 1200">
  <g id="Layer_1-2" data-name="Layer 1">
    <path fill="currentColor" d="M1028.57143,0c-94.67439,0-171.42857,76.75432-171.42857,171.42857,0,15.0858,1.9428,29.69141,5.59989,43.63435L215.06278,862.74289c-13.91992-3.65709-28.54855-5.60003-43.63421-5.60003-94.67439,0-171.42857,76.75432-171.42857,171.42857,0,94.69713,76.75419,171.42857,171.42857,171.42857,94.69713,0,171.42857-76.73145,171.42857-171.42857,0-15.63421-2.10296-30.7885-6.01144-45.18848L983.38281,336.8457c14.39997,3.90862,29.55427,6.01144,45.18862,6.01144,94.69713,0,171.42857-76.73145,171.42857-171.42857,0-94.67425-76.73145-171.42857-171.42857-171.42857ZM329.14286,1028.57143c0,86.9714-70.74289,157.71429-157.71429,157.71429-86.94866,0-157.71429-70.74289-157.71429-157.71429,0-86.94852,70.76562-157.71429,157.71429-157.71429,11.0399,0,21.80566,1.14286,32.20564,3.31431,5.2115,1.07436,10.33147,2.42285,15.36007,4.02288,48.27427,15.29143,86.55999,53.25711,102.33133,101.32575,1.64579,4.95996,3.01716,10.05706,4.16002,15.2228,2.39997,10.9029,3.65723,22.21722,3.65723,33.82854ZM332.11426,968.73145c-17.50865-47.01716-55.06292-84.27427-102.28571-101.37137L867.35993,229.82854c17.0971,47.22294,54.35435,84.7772,101.37151,102.28571L332.11426,968.73145ZM1028.57143,329.14286c-11.61147,0-22.92578-1.25711-33.82868-3.65709-5.1656-1.14286-10.26283-2.51437-15.2228-4.16002-48.06864-15.77148-86.03432-54.0572-101.32575-102.33147-1.60003-5.00572-2.94852-10.14858-4.02288-15.35993-2.17132-10.39997-3.31417-21.16574-3.31417-32.20578,0-86.94852,70.76562-157.71429,157.71429-157.71429,86.9714,0,157.71429,70.76576,157.71429,157.71429,0,86.9714-70.74289,157.71429-157.71429,157.71429Z"/>
    <g>
      <path fill="currentColor" d="M85.7235,702.86602c37.87095,0,68.57143,30.70047,68.57143,68.57143s-30.70047,68.57143-68.57143,68.57143-68.57143-30.70047-68.57143-68.57143,30.70047-68.57143,68.57143-68.57143M85.7235,693.72317c-42.85177,0-77.71429,34.86251-77.71429,77.71429s34.86251,77.71429,77.71429,77.71429,77.71429-34.8625,77.71429-77.71429-34.86251-77.71429-77.71429-77.71429h0Z"/>
      <path fill="currentColor" d="M89.12333,747.13388h-25.79241v-5.95201c3.77902-.28348,7.20312-.66071,10.27455-1.13393,3.0692-.4721,5.76116-1.3683,8.07812-2.69308,2.31473-1.32143,4.25223-3.23438,5.81027-5.73884,1.55804-2.50223,2.71429-5.8817,3.47098-10.13281h7.22768v99.90848h-9.0692v-74.25781Z"/>
    </g>
    <g>
      <path fill="currentColor" d="M1114.29224,360.00888c37.87095,0,68.57143,30.70047,68.57143,68.57143s-30.70047,68.57143-68.57143,68.57143-68.57143-30.70047-68.57143-68.57143,30.70047-68.57143,68.57143-68.57143M1114.29224,350.86602c-42.85177,0-77.71429,34.86251-77.71429,77.71429s34.86251,77.71429,77.71429,77.71429,77.71429-34.86251,77.71429-77.71429-34.86251-77.71429-77.71429-77.71429h0Z"/>
      <path fill="currentColor" d="M1084.17729,411.36156c0-4.91071.75558-9.375,2.26786-13.39174,1.51004-4.01451,3.68415-7.46205,6.51897-10.34487,2.83371-2.88058,6.25781-5.10156,10.27455-6.66071,4.01451-1.55915,8.47768-2.33817,13.39174-2.33817,5.0067,0,9.42411.73326,13.25,2.19643,3.82589,1.4654,7.03683,3.42522,9.63616,5.8817,2.59821,2.45759,4.55804,5.38504,5.8817,8.78571,1.32143,3.40067,1.98438,6.9933,1.98438,10.77009,0,4.44196-.73326,8.36161-2.19643,11.76228-1.46652,3.40179-3.40179,6.42634-5.81138,9.07031-2.40848,2.64621-5.14955,5.00893-8.21875,7.08594-3.07143,2.07812-6.21317,4.03795-9.42411,5.88058-3.21317,1.84263-6.37723,3.61384-9.49442,5.31473-3.1183,1.69978-5.90625,3.49554-8.36161,5.38504-1.60714,1.22879-3.16629,2.5279-4.67634,3.89732-1.51228,1.37054-2.88281,2.85826-4.11049,4.46317-1.22879,1.60826-2.21987,3.37946-2.97545,5.31473-.75781,1.9375-1.18192,4.08705-1.27567,6.44754h55.6942v7.6529h-65.33036c.09263-4.81808.61272-9.16295,1.55915-13.03795.94308-3.87277,3.02232-7.65179,6.23549-11.33705,3.4933-3.96763,7.10714-7.36942,10.8404-10.20312,3.73103-2.83482,7.39174-5.36049,10.98326-7.58147,3.58929-2.21875,6.98996-4.25223,10.20312-6.09375,3.21094-1.84263,6.04464-3.84933,8.50335-6.02344,2.45536-2.17188,4.39286-4.62723,5.81027-7.36942,1.41629-2.73884,2.125-6.09375,2.125-10.06138,0-3.21094-.56696-6.09375-1.69978-8.64397-1.13393-2.55134-2.69308-4.72321-4.67746-6.51897-1.98326-1.79353-4.30022-3.14062-6.94308-4.03906-2.64621-.89732-5.52679-1.34598-8.64509-1.34598-3.30804,0-6.3058.68638-8.99888,2.05469-2.69196,1.37054-5.00893,3.18862-6.9442,5.45536-1.9375,2.26786-3.42522,4.91406-4.46429,7.93638-1.04018,3.02455-1.4654,6.23549-1.27455,9.63616h-9.63728Z"/>
    </g>
  </g>
</svg>