<?xml version="1.0" encoding="UTF-8"?>
<svg id="Layer_2" data-name="Layer 2" xmlns="http://www.w3.org/2000/svg" viewBox="0 0 175 175">
  <defs>
    <style>
      /* Стиль для отрезка и точек. Будет использовать цвет иконок */
      .cls-line {
        fill: currentColor;
      }
      /* Стиль для текста. Будет использовать цвет текста из темы */
      .cls-text {
        fill: @textColor;
      }
    </style>
  </defs>
  <g id="Promt">
    <g>
      <path class="cls-line" d="M132.11835,25c-9.85492,0-17.82447,7.99814-17.82447,17.88165,0,1.65664.22857,3.22785.65694,4.7417L47.62335,114.95082c-1.51385-.42854-3.08488-.65694-4.7417-.65694-9.88352,0-17.88165,7.96954-17.88165,17.82447,0,9.88334,7.99814,17.88165,17.88165,17.88165,9.85492,0,17.82447-7.99831,17.82447-17.88165,0-1.65681-.22857-3.22785-.65694-4.74187L127.37665,60.04918c1.51385.42837,3.08488.65694,4.7417.65694,9.88352,0,17.88165-7.96972,17.88165-17.82447,0-9.88352-7.99814-17.88165-17.88165-17.88165ZM56.42138,132.11835c0,7.48399-6.08434,13.59692-13.53973,13.59692-7.48399,0-13.59692-6.11293-13.59692-13.59692,0-7.4554,6.11293-13.53973,13.59692-13.53973.37136,0,.71412,0,1.05689.05701,1.68541.11437,3.31345.57133,4.77029,1.28546,2.79948,1.31405,5.05604,3.57061,6.37009,6.36992.71412,1.45684,1.17108,3.08506,1.28528,4.77046.05719.34276.05719.68553.05719,1.05689ZM58.24958,123.12034c-1.51402-2.65651-3.7134-4.85607-6.36992-6.36992L116.75042,51.87949c1.51402,2.65651,3.7134,4.85607,6.36992,6.37009L58.24958,123.12034ZM132.11835,56.42138c-.37136,0-.71412,0-1.05689-.05719-1.68541-.1142-3.31345-.57133-4.77029-1.28546-2.79948-1.31387-5.05604-3.57061-6.37009-6.36992-.71412-1.45684-1.17108-3.08506-1.28528-4.77029-.05719-.34276-.05719-.68553-.05719-1.05689,0-7.48399,6.08434-13.59692,13.53973-13.59692,7.48399,0,13.59692,6.11293,13.59692,13.59692,0,7.4554-6.11293,13.53973-13.59692,13.53973Z"/>
      
      <path class="cls-text" d="M6.16126,152.17278h4.59961v-16.52344l-5.50781,2.65137v-2.8418l5.47852-2.60742h2.95898v19.32129h4.54102v2.47559H6.16126v-2.47559Z"/>
      
      <path class="cls-text" d="M156.74609,28.75977h10.04883v2.49023h-13.28613v-2.49023c1.82617-1.92383,3.42285-3.62305,4.79004-5.09766s2.30957-2.51465,2.82715-3.12012c.97656-1.19141,1.63574-2.15527,1.97754-2.89258s.5127-1.49219.5127-2.26367c0-1.2207-.3584-2.17773-1.07617-2.87109s-1.70215-1.04004-2.95215-1.04004c-.88867,0-1.82129.16113-2.79785.4834s-2.01172.81055-3.10547,1.46484v-2.98828c1.00586-.47852,1.99512-.83984,2.9668-1.08398s1.93066-.36621,2.87793-.36621c2.13867,0,3.86035.56934,5.16406,1.70703s1.95508,2.62891,1.95508,4.47461c0,.9375-.2168,1.875-.65137,2.8125s-1.14062,1.97266-2.11719,3.10547c-.54688.63477-1.33984,1.51367-2.37988,2.63672s-2.625,2.80273-4.75391,5.03906Z"/>
    </g>
  </g>
</svg>