<?xml version="1.0" encoding="UTF-8"?>
<svg id="Layer_2" data-name="Layer 2" xmlns="http://www.w3.org/2000/svg" viewBox="0 0 73 3">
  <g id="Layer_1-2" data-name="Layer 1">
    <g>
      <path fill="currentColor" d="M4,3H1.5c-.82861,0-1.5-.67139-1.5-1.5S.67139,0,1.5,0h2.5c.82861,0,1.5.67139,1.5,1.5s-.67139,1.5-1.5,1.5Z"/>
      <path fill="currentColor" d="M62.60938,3h-5.3291c-.83008,0-1.5-.67041-1.5-1.5,0-.83008.66992-1.5,1.5-1.5h5.3291c.82031,0,1.5.66992,1.5,1.5,0,.82959-.67969,1.5-1.5,1.5ZM50.88965,3h-5.33008c-.83008,0-1.5-.67041-1.5-1.5,0-.83008.66992-1.5,1.5-1.5h5.33008c.82031,0,1.5.66992,1.5,1.5,0,.82959-.67969,1.5-1.5,1.5ZM39.16016,3h-5.32031c-.83008,0-1.5-.67041-1.5-1.5,0-.83008.66992-1.5,1.5-1.5h5.32031c.83008,0,1.5.66992,1.5,1.5,0,.82959-.66992,1.5-1.5,1.5ZM27.43994,3h-5.33008c-.81982,0-1.5-.67041-1.5-1.5,0-.83008.68018-1.5,1.5-1.5h5.33008c.83008,0,1.5.66992,1.5,1.5,0,.82959-.66992,1.5-1.5,1.5ZM15.71973,3h-5.31982c-.83008,0-1.51025-.67041-1.51025-1.5,0-.83008.68018-1.5,1.51025-1.5h5.31982c.83008,0,1.5.66992,1.5,1.5,0,.82959-.66992,1.5-1.5,1.5Z"/>
      <path fill="currentColor" d="M71.5,3h-2.5c-.82812,0-1.5-.67139-1.5-1.5s.67188-1.5,1.5-1.5h2.5c.82812,0,1.5.67139,1.5,1.5s-.67188,1.5-1.5,1.5Z"/>
    </g>
  </g>
</svg>