<?xml version="1.0" encoding="UTF-8"?>
<svg id="Layer_2" data-name="Layer 2" xmlns="http://www.w3.org/2000/svg" viewBox="0 0 73 3">
  <g id="Layer_1-2" data-name="Layer 1">
    <g>
      <path fill="currentColor" d="M4,3H1.5c-.82861,0-1.5-.67139-1.5-1.5S.67139,0,1.5,0h2.5c.82861,0,1.5.67139,1.5,1.5s-.67139,1.5-1.5,1.5Z"/>
      <path fill="currentColor" d="M7.13965,1.5c0-.83008.68018-1.5,1.5-1.5h0c.83008,0,1.5.66992,1.5,1.5h0c0,.82959-.66992,1.5-1.5,1.5h0c-.81982,0-1.5-.67041-1.5-1.5Z"/>
      <path fill="currentColor" d="M64.35938,3c-.8291,0-1.5-.67041-1.5-1.5,0-.83008.6709-1.5,1.5-1.5.83008,0,1.5.66992,1.5,1.5,0,.82959-.66992,1.5-1.5,1.5ZM59.70996,3h-4.64062c-.8291,0-1.5-.67041-1.5-1.5,0-.83008.6709-1.5,1.5-1.5h4.64062c.83008,0,1.5.66992,1.5,1.5,0,.82959-.66992,1.5-1.5,1.5ZM50.42969,3c-.83008,0-1.5-.67041-1.5-1.5,0-.83008.66992-1.5,1.5-1.5s1.5.66992,1.5,1.5c0,.82959-.66992,1.5-1.5,1.5ZM45.79004,3h-4.65039c-.82031,0-1.5-.67041-1.5-1.5,0-.83008.67969-1.5,1.5-1.5h4.65039c.81934,0,1.49023.66992,1.49023,1.5,0,.82959-.6709,1.5-1.49023,1.5ZM36.5,3c-.83008,0-1.5-.67041-1.5-1.5,0-.83008.66992-1.5,1.5-1.5.82959,0,1.5.66992,1.5,1.5,0,.82959-.67041,1.5-1.5,1.5ZM31.85986,3h-4.64014c-.83008,0-1.5-.67041-1.5-1.5,0-.83008.66992-1.5,1.5-1.5h4.64014c.81982,0,1.5.66992,1.5,1.5,0,.82959-.68018,1.5-1.5,1.5ZM22.56982,3c-.83008,0-1.5-.67041-1.5-1.5,0-.83008.66992-1.5,1.5-1.5s1.5.66992,1.5,1.5c0,.82959-.66992,1.5-1.5,1.5ZM17.92969,3h-4.63965c-.83008,0-1.5-.67041-1.5-1.5,0-.83008.66992-1.5,1.5-1.5h4.63965c.83008,0,1.5.66992,1.5,1.5,0,.82959-.66992,1.5-1.5,1.5Z"/>
      <path fill="currentColor" d="M71.5,3h-2.5c-.82812,0-1.5-.67139-1.5-1.5s.67188-1.5,1.5-1.5h2.5c.82812,0,1.5.67139,1.5,1.5s-.67188,1.5-1.5,1.5Z"/>
    </g>
  </g>
</svg>