<?xml version="1.0" encoding="UTF-8"?>
<svg id="Layer_2" data-name="Layer 2" xmlns="http://www.w3.org/2000/svg" viewBox="0 0 73 3">
  <g id="Layer_1-2" data-name="Layer 1">
    <g>
      <path fill="currentColor" d="M1.5,3c-.1001,0-.2002-.00977-.29004-.03027-.1001-.01953-.18994-.0498-.28027-.08008-.08984-.04004-.17969-.08984-.25977-.13965-.08008-.06055-.16016-.12012-.22998-.19043-.07031-.06982-.12988-.13965-.18994-.22998-.05029-.07959-.1001-.16992-.13037-.25977-.04004-.08984-.06982-.18018-.08984-.27979-.02002-.09033-.02979-.19043-.02979-.29004,0-.40039.15967-.78027.43994-1.06006C.79004.08984,1.31006-.07031,1.79004.02979c.09961.02002.18994.0498.27979.08984.08984.03027.18018.08008.25977.13037.09033.06006.16016.11963.23047.18994.27979.27979.43994.65967.43994,1.06006,0,.09961-.01025.19971-.03027.29004-.02002.09961-.0498.18994-.08008.27979-.04004.08984-.08984.18018-.13965.25977-.06006.09033-.12012.16016-.18994.22998-.07031.07031-.14014.12988-.23047.19043-.07959.0498-.16992.09961-.25977.13965-.08984.03027-.18018.06055-.27979.08008-.09033.02051-.19043.03027-.29004.03027Z"/>
      <path fill="currentColor" d="M14.87988,3h-5.14014c-.83008,0-1.5-.67041-1.5-1.5,0-.83008.66992-1.5,1.5-1.5h5.14014c.83008,0,1.5.66992,1.5,1.5,0,.82959-.66992,1.5-1.5,1.5ZM5.61963,3c-.82959,0-1.5-.67041-1.5-1.5,0-.83008.67041-1.5,1.5-1.5.83008,0,1.5.66992,1.5,1.5,0,.82959-.66992,1.5-1.5,1.5Z"/>
      <path fill="currentColor" d="M67.37988,3h-5.13965c-.83008,0-1.51074-.67041-1.51074-1.5,0-.83008.68066-1.5,1.51074-1.5h5.13965c.83008,0,1.5.66992,1.5,1.5,0,.82959-.66992,1.5-1.5,1.5ZM58.12012,3c-.83008,0-1.5-.67041-1.5-1.5,0-.83008.66992-1.5,1.5-1.5.81934,0,1.5.66992,1.5,1.5,0,.82959-.68066,1.5-1.5,1.5ZM54,3c-.83008,0-1.5-.67041-1.5-1.5,0-.83008.66992-1.5,1.5-1.5s1.5.66992,1.5,1.5c0,.82959-.66992,1.5-1.5,1.5ZM49.87988,3h-5.13965c-.83008,0-1.5-.67041-1.5-1.5,0-.83008.66992-1.5,1.5-1.5h5.13965c.83008,0,1.5.66992,1.5,1.5,0,.82959-.66992,1.5-1.5,1.5ZM40.62012,3c-.83008,0-1.5-.67041-1.5-1.5,0-.83008.66992-1.5,1.5-1.5.81934,0,1.5.66992,1.5,1.5,0,.82959-.68066,1.5-1.5,1.5ZM36.5,3c-.83008,0-1.5-.67041-1.5-1.5,0-.83008.66992-1.5,1.5-1.5.82959,0,1.5.66992,1.5,1.5,0,.82959-.67041,1.5-1.5,1.5ZM32.37988,3h-5.14014c-.83008,0-1.50977-.67041-1.50977-1.5,0-.83008.67969-1.5,1.50977-1.5h5.14014c.83008,0,1.5.66992,1.5,1.5,0,.82959-.66992,1.5-1.5,1.5ZM23.11963,3c-.82959,0-1.5-.67041-1.5-1.5,0-.83008.67041-1.5,1.5-1.5.83008,0,1.5.66992,1.5,1.5,0,.82959-.66992,1.5-1.5,1.5ZM19,3c-.83008,0-1.5-.67041-1.5-1.5,0-.83008.66992-1.5,1.5-1.5.82959,0,1.5.66992,1.5,1.5,0,.82959-.67041,1.5-1.5,1.5Z"/>
      <path fill="currentColor" d="M71.5,3c-.40039,0-.78027-.16016-1.06055-.44043-.2793-.27979-.43945-.66992-.43945-1.05957,0-.39014.16016-.78027.43945-1.06006.35059-.3501.87012-.51025,1.35059-.41016.09961.02002.18945.0498.2793.08984.09082.03027.18066.08008.26074.13037.08984.06006.16016.11963.22949.18994.28027.27979.44043.66992.44043,1.06006,0,.38965-.16016.77979-.44043,1.05957-.06934.07031-.13965.12988-.22949.19043-.08008.0498-.16992.09961-.26074.13965-.08984.03027-.17969.06055-.2793.08008-.08984.02051-.19043.03027-.29004.03027Z"/>
    </g>
  </g>
</svg>