<?xml version="1.0" encoding="UTF-8"?>
<svg id="Layer_2" data-name="Layer 2" xmlns="http://www.w3.org/2000/svg" viewBox="0 0 73 3">
  <g id="Layer_1-2" data-name="Layer 1">
    <path fill="currentColor" d="M70,1.5c0-.83008.66992-1.5,1.5-1.5h0c.83008,0,1.5.66992,1.5,1.5h0c0,.82959-.66992,1.5-1.5,1.5h0c-.83008,0-1.5-.67041-1.5-1.5ZM65,1.5c0-.83008.66992-1.5,1.5-1.5h0c.83008,0,1.5.66992,1.5,1.5h0c0,.82959-.66992,1.5-1.5,1.5h0c-.83008,0-1.5-.67041-1.5-1.5ZM60,1.5c0-.83008.66992-1.5,1.5-1.5h0c.83008,0,1.5.66992,1.5,1.5h0c0,.82959-.66992,1.5-1.5,1.5h0c-.83008,0-1.5-.67041-1.5-1.5ZM55,1.5c0-.83008.66992-1.5,1.5-1.5h0c.83008,0,1.5.66992,1.5,1.5h0c0,.82959-.66992,1.5-1.5,1.5h0c-.83008,0-1.5-.67041-1.5-1.5ZM50,1.5c0-.83008.66992-1.5,1.5-1.5h0c.83008,0,1.5.66992,1.5,1.5h0c0,.82959-.66992,1.5-1.5,1.5h0c-.83008,0-1.5-.67041-1.5-1.5ZM45,1.5c0-.83008.66992-1.5,1.5-1.5h0c.83008,0,1.5.66992,1.5,1.5h0c0,.82959-.66992,1.5-1.5,1.5h0c-.83008,0-1.5-.67041-1.5-1.5ZM40,1.5c0-.83008.66992-1.5,1.5-1.5h0c.83008,0,1.5.66992,1.5,1.5h0c0,.82959-.66992,1.5-1.5,1.5h0c-.83008,0-1.5-.67041-1.5-1.5ZM35,1.5c0-.83008.66992-1.5,1.5-1.5h0c.82959,0,1.5.66992,1.5,1.5h0c0,.82959-.67041,1.5-1.5,1.5h0c-.83008,0-1.5-.67041-1.5-1.5ZM30,1.5c0-.83008.66992-1.5,1.5-1.5h0c.82959,0,1.5.66992,1.5,1.5h0c0,.82959-.67041,1.5-1.5,1.5h0c-.83008,0-1.5-.67041-1.5-1.5ZM25,1.5c0-.83008.66992-1.5,1.5-1.5h0c.82959,0,1.5.66992,1.5,1.5h0c0,.82959-.67041,1.5-1.5,1.5h0c-.83008,0-1.5-.67041-1.5-1.5ZM20,1.5c0-.83008.66992-1.5,1.5-1.5h0c.82959,0,1.5.66992,1.5,1.5h0c0,.82959-.67041,1.5-1.5,1.5h0c-.83008,0-1.5-.67041-1.5-1.5ZM15,1.5c0-.83008.66992-1.5,1.5-1.5h0c.82959,0,1.5.66992,1.5,1.5h0c0,.82959-.67041,1.5-1.5,1.5h0c-.83008,0-1.5-.67041-1.5-1.5ZM10,1.5c0-.83008.66992-1.5,1.5-1.5h0c.82959,0,1.5.66992,1.5,1.5h0c0,.82959-.67041,1.5-1.5,1.5h0c-.83008,0-1.5-.67041-1.5-1.5ZM5,1.5c0-.83008.66992-1.5,1.5-1.5h0c.82959,0,1.5.66992,1.5,1.5h0c0,.82959-.67041,1.5-1.5,1.5h0c-.83008,0-1.5-.67041-1.5-1.5ZM0,1.5C0,.66992.66992,0,1.5,0h0c.82959,0,1.5.66992,1.5,1.5h0c0,.82959-.67041,1.5-1.5,1.5h0c-.83008,0-1.5-.67041-1.5-1.5Z"/>
  </g>
</svg>