<?xml version="1.0" encoding="UTF-8"?>
<svg id="Layer_2" data-name="Layer 2" xmlns="http://www.w3.org/2000/svg" viewBox="0 0 50 50">
  <defs>
    <style>
      .cls-1 {
        fill: none;
      }
    </style>
  </defs>
  <g id="Icon">
    <rect class="cls-1" width="50" height="50"/>
    <path fill="currentColor" d="M43.72998,9.10999c-.12-1.59998-1.46997-2.85999-3.09998-2.85999-1.10999,0-2.08002.57996-2.63,1.44-1.42999-.21002-2.89001-.32001-4.38-.32001-5.41998,0-10.52002,1.42999-14.91998,3.92999-.00098.00055-.00195.00122-.00293.00177-.55249-.49304-1.27332-.80176-2.07208-.80176-1.72589,0-3.125,1.39911-3.125,3.125,0,.42389.0863.82715.2392,1.19574-3.09973,2.67987-5.62939,5.98956-7.4292,9.70923h-.06c-1.72998,0-3.13,1.40002-3.13,3.12,0,.98004.45001,1.86005,1.16003,2.42004.38995.32996.85999.56,1.38995.65997.17999.03003.38.04999.58002.04999,1.72998,0,3.13-1.39996,3.13-3.13,0-1.15997-.64001-2.17999-1.59003-2.70996,1.69-3.41003,4.02002-6.42999,6.85004-8.91003.00195-.00171.00397-.00323.00592-.00494.54028.44611,1.22369.72498,1.97906.72498,1.72589,0,3.125-1.39911,3.125-3.125,0-.37732-.07733-.73425-.19989-1.06915.00336-.00189.00653-.00403.00989-.00586,4.15997-2.34998,8.96002-3.67999,14.06-3.67999,1.32001,0,2.62.08997,3.89001.27002-.01001.07996-.01001.14996-.01001.22998,0,1.72998,1.40002,3.13,3.13,3.13,1.27997,0,2.39001-.78003,2.85999-1.89001.16998-.38.26001-.79999.26001-1.23999,0-.09003,0-.16998-.02002-.26001Z"/>
  </g>
</svg>