<?xml version="1.0" encoding="UTF-8"?>
<svg id="Layer_2" data-name="Layer 2" xmlns="http://www.w3.org/2000/svg" viewBox="0 0 50 50">
  <defs>
    <style>
      .cls-1 {
        fill: none;
      }
    </style>
  </defs>
  <g id="Icon">
    <rect class="cls-1" width="50" height="50"/>
    <path fill="currentColor" d="M36.72012,7.69c-1.37534-.21002-2.77957-.32001-4.21262-.32001-11.56065,0-21.56317,7.01001-26.2663,17.15997-.69246,1.48004-1.25993,3.03003-1.70238,4.63-.11541.41003.12504.84003.5194.95001.0577.02002.11541.02002.17311.02002.3174,0,.60593-.22003.70208-.55005.45207-1.59998,1.03874-3.15997,1.7312-4.63995,4.53002-9.52002,13.96511-16.07001,24.84288-16.07001,1.26956,0,2.51987.08997,3.74135.27002,1.63418.22535,3.21781.60859,4.75084,1.11707.38633.12814.7969-.09144.91117-.49598h0c.10898-.38582-.092-.79901-.45935-.92479-1.52326-.52156-3.10897-.91036-4.7314-1.14632Z"/>
    <g>
      <path fill="currentColor" d="M14.95703,30.60742h-1.5c-.41406,0-.75.33594-.75.75s.33594.75.75.75h1.5c.41406,0,.75-.33594.75-.75s-.33594-.75-.75-.75Z"/>
      <path fill="currentColor" d="M20.32764,30.60742h-2.68555c-.41406,0-.75.33594-.75.75s.33594.75.75.75h2.68555c.41406,0,.75-.33594.75-.75s-.33594-.75-.75-.75Z"/>
      <path fill="currentColor" d="M25.69824,30.60742h-2.68555c-.41406,0-.75.33594-.75.75s.33594.75.75.75h2.68555c.41406,0,.75-.33594.75-.75s-.33594-.75-.75-.75Z"/>
      <path fill="currentColor" d="M31.06934,30.60742h-2.68555c-.41406,0-.75.33594-.75.75s.33594.75.75.75h2.68555c.41406,0,.75-.33594.75-.75s-.33594-.75-.75-.75Z"/>
      <path fill="currentColor" d="M36.43945,30.60742h-2.68555c-.41406,0-.75.33594-.75.75s.33594.75.75.75h2.68555c.41406,0,.75-.33594.75-.75s-.33594-.75-.75-.75Z"/>
      <path fill="currentColor" d="M40.625,27.36914c.41406,0,.75-.33594.75-.75v-3.23828c0-.41406-.33594-.75-.75-.75s-.75.33594-.75.75v3.23828c0,.41406.33594.75.75.75Z"/>
      <path fill="currentColor" d="M40.625,20.89209c.41406,0,.75-.33594.75-.75v-1.5c0-.41406-.33594-.75-.75-.75s-.75.33594-.75.75v1.5c0,.41406.33594.75.75.75Z"/>
      <circle fill="currentColor" cx="40.625" cy="31.25" r="3.125"/>
    </g>
  </g>
</svg>