<?xml version="1.0" encoding="UTF-8"?>
<svg id="Layer_2" data-name="Layer 2" xmlns="http://www.w3.org/2000/svg" viewBox="0 0 50 50">
  <defs>
    <style>
      .cls-1 {
        fill: none;
      }
    </style>
  </defs>
  <g id="Icon">
    <rect class="cls-1" width="50" height="50"/>
    <path fill="currentColor" d="M46.89398,12.93054c.45306-.5423.73651-1.23114.73651-1.99304,0-1.72589-1.39911-3.125-3.125-3.125-.40576,0-.79077.08313-1.14648.22388-.05377-.05811-.10468-.11884-.159-.17639-.34003-.35999-.70001-.71997-1.06-1.04999C37.66998,2.57996,31.63,0,25,0c-4.34833,0-8.43579,1.11108-11.99707,3.06238-.57281-.65515-1.40497-1.07751-2.34357-1.07751-1.72589,0-3.125,1.39911-3.125,3.125,0,.58081.16901,1.11792.44507,1.58386C3.07251,11.258,0,17.76782,0,25c0,6.63,2.58002,12.66998,6.81,17.14001.33002.35999.69.71997,1.04999,1.04999.71252.67426,1.46906,1.30139,2.25739,1.88806-.13904.35388-.22174.73633-.22174,1.13953,0,1.72589,1.39911,3.125,3.125,3.125,1.00549,0,1.89026-.48322,2.46185-1.22089,2.93506,1.20972,6.14941,1.8783,9.51752,1.8783,13.81,0,25-11.19,25-25,0-4.37512-1.12915-8.48981-3.10602-12.06946ZM25,48.5c-3.15186,0-6.15845-.62769-8.90723-1.75769.02911-.17145.05286-.34497.05286-.52472,0-1.72589-1.39911-3.125-3.125-3.125-.7782,0-1.48096.29474-2.02795.76532C5.23572,39.57098,1.5,32.71478,1.5,25c0-6.80231,2.90668-12.93475,7.53979-17.22955.47357.28894,1.02423.46442,1.61957.46442,1.72589,0,3.125-1.39911,3.125-3.125,0-.24396-.03442-.4787-.08734-.7066,3.35571-1.84857,7.20782-2.90326,11.30298-2.90326,6.74896,0,12.83734,2.86243,17.12708,7.43225-.45917.54401-.74658,1.23767-.74658,2.00525,0,1.72589,1.39911,3.125,3.125,3.125.41345,0,.80621-.08453,1.16742-.23041,1.80237,3.32361,2.82709,7.12805,2.82709,11.16791,0,12.95996-10.53998,23.5-23.5,23.5Z"/>
  </g>
</svg>