<?xml version="1.0" encoding="UTF-8"?>
<svg id="Layer_2" data-name="Layer 2" xmlns="http://www.w3.org/2000/svg" viewBox="0 0 50 50">
  <defs>
    <style>
      .cls-1 {
        fill: none;
      }
    </style>
  </defs>
  <g id="Icon">
    <rect class="cls-1" width="50" height="50"/>
    <g>
      <path fill="currentColor" d="M44.71503,9.63702c.37201-.51428.59747-1.14124.59747-1.82452,0-1.72589-1.39911-3.125-3.125-3.125-.68329,0-1.31024.22546-1.82452.59747C36.12354,1.97662,30.79425,0,25,0,11.19287,0,0,11.19287,0,25c0,5.79608,1.97784,11.12695,5.28809,15.367-.35333.50629-.56372,1.11945-.56372,1.78363,0,1.72589,1.39911,3.125,3.125,3.125.66418,0,1.27734-.21039,1.78363-.56372,4.24005,3.31024,9.57092,5.28809,15.367,5.28809,13.80713,0,25-11.19287,25-25,0-5.79425-1.97662-11.12354-5.28497-15.36298ZM25,48.5c-5.41388,0-10.40204-1.84509-14.37982-4.93286.21893-.42694.35419-.90369.35419-1.4165,0-.59021-.17322-1.13599-.45758-1.60687l1.48615-1.48615c.29297-.29297.29297-.76758,0-1.06055s-.76758-.29297-1.06055,0l-1.48615,1.48615c-.47089-.28436-1.01666-.45758-1.60687-.45758-.51282,0-.98956.13525-1.4165.35419-3.08777-3.97778-4.93286-8.96594-4.93286-14.37982C1.5,12.04205,12.04205,1.5,25,1.5c5.41925,0,10.41193,1.84888,14.39166,4.9422-.20416.41534-.32916.87628-.32916,1.3703,0,.5899.1731,1.1355.45721,1.60626l-1.52362,1.52362c-.29297.29297-.29297.76758,0,1.06055.14648.14648.33789.21973.53027.21973s.38379-.07324.53027-.21973l1.52332-1.52332c.47101.28455,1.01709.45789,1.60754.45789.49402,0,.95496-.125,1.3703-.32916,3.09332,3.97974,4.9422,8.97241,4.9422,14.39166,0,12.95795-10.54205,23.5-23.5,23.5Z"/>
      <path fill="currentColor" d="M23.42871,25.51074l-2.08105,2.08105c-.29297.29297-.29297.76758,0,1.06055.14648.14648.33838.21973.53027.21973s.38379-.07324.53027-.21973l2.08105-2.08105c.29297-.29297.29297-.76758,0-1.06055s-.76758-.29297-1.06055,0Z"/>
      <path fill="currentColor" d="M19.2666,29.67285l-2.08105,2.08105c-.29297.29297-.29297.76758,0,1.06055.14648.14648.33838.21973.53027.21973s.38379-.07324.53027-.21973l2.08105-2.08105c.29297-.29297.29297-.76758,0-1.06055s-.76758-.29297-1.06055,0Z"/>
      <path fill="currentColor" d="M15.10449,33.83496l-2.08105,2.08105c-.29297.29297-.29297.76758,0,1.06055.14648.14648.33838.21973.53027.21973s.38379-.07324.53027-.21973l2.08105-2.08105c.29297-.29297.29297-.76758,0-1.06055s-.76758-.29297-1.06055,0Z"/>
      <path fill="currentColor" d="M27.59082,21.34814l-2.08105,2.08105c-.29297.29297-.29297.76758,0,1.06055.14648.14648.33838.21973.53027.21973.19238,0,.38379-.07324.53027-.21973l2.08105-2.08105c.29297-.29297.29297-.76758,0-1.06055s-.76758-.29297-1.06055,0Z"/>
      <path fill="currentColor" d="M35.91504,13.02344l-2.08105,2.08154c-.29297.29297-.29297.76758,0,1.06055.14648.14648.33789.21973.53027.21973s.38379-.07324.53027-.21973l2.08105-2.08154c.29297-.29297.29297-.76758,0-1.06055s-.76758-.29297-1.06055,0Z"/>
      <path fill="currentColor" d="M31.75293,17.18604l-2.08105,2.08105c-.29297.29297-.29297.76758,0,1.06055.14648.14648.33789.21973.53027.21973s.38379-.07324.53027-.21973l2.08105-2.08105c.29297-.29297.29297-.76758,0-1.06055s-.76758-.29297-1.06055,0Z"/>
    </g>
  </g>
</svg>