<?xml version="1.0" encoding="UTF-8"?>
<svg id="Layer_2" data-name="Layer 2" xmlns="http://www.w3.org/2000/svg" viewBox="0 0 50 50">
  <defs>
    <style>
      .cls-1 {
        fill: none;
      }
    </style>
  </defs>
  <g id="Icon">
    <rect class="cls-1" width="50" height="50"/>
    <g>
      <path fill="currentColor" d="M43.20001,7.85999c-.34003-.35999-.70001-.71997-1.06-1.04999C37.66998,2.57996,31.63,0,25,0,11.19,0,0,11.19,0,25c0,6.63,2.58002,12.66998,6.81,17.14001.33002.35999.69.71997,1.04999,1.04999,4.47003,4.22998,10.51001,6.81,17.14001,6.81,13.81,0,25-11.19,25-25,0-6.63-2.58002-12.67004-6.79999-17.14001ZM25,48.5c-12.96002,0-23.5-10.54004-23.5-23.5S12.03998,1.5,25,1.5s23.5,10.53998,23.5,23.5-10.53998,23.5-23.5,23.5Z"/>
      <path fill="currentColor" d="M27.59003,21.34998l-.98004.97998c-.46997-.28998-1.01996-.44995-1.60999-.44995-1.72998,0-3.12,1.38995-3.12,3.12,0,.58997.15997,1.14001.45001,1.60999.26001.44.62.79999,1.06,1.06.46997.28998,1.01996.45001,1.60999.45001,1.72998,0,3.12-1.39001,3.12-3.12,0-.59003-.15997-1.14001-.45001-1.60999l.98004-.98004c.28998-.28998.28998-.76996,0-1.06-.29004-.28998-.77002-.28998-1.06,0Z"/>
      <path fill="currentColor" d="M31.75,17.19l-2.08002,2.07996c-.28998.29004-.28998.76001,0,1.06.15002.14001.34003.22003.53003.22003s.39001-.08002.52997-.22003l2.08002-2.07996c.29999-.29999.29999-.77002,0-1.06-.28998-.29999-.76001-.29999-1.06,0Z"/>
      <path fill="currentColor" d="M40.08002,8.85999l-2.08002,2.08002c-.29999.29999-.29999.76996,0,1.06.14001.14996.33002.21997.53003.21997.18994,0,.37994-.07001.52997-.21997l2.08002-2.08002c.28998-.28998.28998-.77002,0-1.06-.29999-.28998-.77002-.28998-1.06,0Z"/>
      <path fill="currentColor" d="M35.91998,13.01996l-2.08997,2.08002c-.29004.29999-.29004.77002,0,1.07001.14996.14001.33997.22003.52997.22003.20001,0,.39001-.08002.53003-.22003l2.08997-2.09003c.29004-.28998.29004-.75995,0-1.06-.29999-.28998-.76996-.28998-1.06,0Z"/>
    </g>
  </g>
</svg>