<?xml version="1.0" encoding="UTF-8"?>
<svg id="Layer_2" data-name="Layer 2" xmlns="http://www.w3.org/2000/svg" viewBox="0 0 50 50">
  <defs>
    <style>
      .cls-1 {
        fill: none;
      }
    </style>
  </defs>
  <g id="Icon">
    <rect class="cls-1" width="50" height="50"/>
    <g>
      <path fill="currentColor" d="M25,17.91998c.40997,0,.75-.34003.75-.75v-3.15002c0-.40997-.34003-.75-.75-.75s-.75.34003-.75.75v3.15002c0,.40997.34003.75.75.75Z"/>
      <path fill="currentColor" d="M25,32.14996c-.40997,0-.75.34003-.75.75v3.15002c0,.41998.34003.75.75.75s.75-.33002.75-.75v-3.15002c0-.40997-.34003-.75-.75-.75Z"/>
      <path fill="currentColor" d="M43.72998,24.28998c-.45996-8.08997-8.26996-14.58997-17.97998-14.89996-.25-.02002-.5-.02002-.75-.02002s-.5,0-.75.02002c-9.71002.31-17.52002,6.81-17.97998,14.89996-.01001.25-.02002.5-.02002.75s.01001.5.02002.75c.45996,8.09003,8.26996,14.58002,17.97998,14.89001.25.02002.5.02002.75.02002s.5,0,.75-.02002c9.71002-.31,17.52002-6.79999,17.97998-14.89001.01001-.25.02002-.5.02002-.75s-.01001-.5-.02002-.75ZM25.75,39.17999c-.01001-.40002-.34998-.72998-.75-.72998s-.73999.32996-.75.72998c-8.85999-.29999-16.01001-6.13-16.47998-13.39001.39996-.01001.72998-.34998.72998-.75,0-.40997-.33002-.73999-.72998-.75.46997-7.26001,7.62-13.08997,16.47998-13.39996.01001.40997.34003.72998.75.72998s.73999-.32001.75-.72998c8.85999.31,16.01001,6.13995,16.47998,13.39996-.39996.01001-.72998.34003-.72998.75,0,.40002.33002.73999.72998.75-.46997,7.26001-7.62,13.09003-16.47998,13.39001Z"/>
      <path fill="currentColor" d="M14.02002,24.28998h-3.13c-.42004,0-.75.33002-.75.75,0,.41003.32996.75.75.75h3.13c.41998,0,.75-.33997.75-.75,0-.41998-.33002-.75-.75-.75Z"/>
      <path fill="currentColor" d="M39.10999,24.28998h-3.13c-.41998,0-.75.33002-.75.75,0,.41003.33002.75.75.75h3.13c.42004,0,.75-.33997.75-.75,0-.41998-.32996-.75-.75-.75Z"/>
      <path fill="currentColor" d="M32.84003,24.28998h-3.14001c-.41003,0-.75.33002-.75.75,0,.41003.33997.75.75.75h3.14001c.40997,0,.75-.33997.75-.75,0-.41998-.34003-.75-.75-.75Z"/>
      <path fill="currentColor" d="M20.28998,24.28998h-3.13c-.41998,0-.75.33002-.75.75,0,.41003.33002.75.75.75h3.13c.42004,0,.75-.33997.75-.75,0-.41998-.32996-.75-.75-.75Z"/>
      <path fill="currentColor" d="M25.75,21.97577v-1.65576c0-.42004-.34003-.75-.75-.75s-.75.32996-.75.75v1.65576c-1.36169.33728-2.375,1.55829-2.375,3.02423s1.01331,2.68695,2.375,3.02423v1.73578c0,.40997.34003.75.75.75s.75-.34003.75-.75v-1.73578c1.36169-.33728,2.375-1.55829,2.375-3.02423s-1.01331-2.68695-2.375-3.02423Z"/>
    </g>
  </g>
</svg>