<?xml version="1.0" encoding="UTF-8"?>
<svg id="Layer_2" data-name="Layer 2" xmlns="http://www.w3.org/2000/svg" viewBox="0 0 50 50">
  <defs>
    <style>
      .cls-1 {
        fill: none;
      }
    </style>
  </defs>
  <g id="Icon">
    <rect class="cls-1" width="50" height="50"/>
    <g>
      <circle fill="currentColor" cx="25" cy="25" r="3.125"/>
      <path fill="currentColor" d="M10.62207,13.71387c.21436,0,.42676-.09131.5752-.26807.61523-.73389,1.29395-1.42383,2.01758-2.05127.31299-.27148.34668-.74512.07568-1.05811-.27148-.31348-.74561-.34766-1.05811-.07568-.78369.67969-1.51855,1.42676-2.18457,2.22119-.26611.31738-.22461.79053.09277,1.05664.14062.11768.31152.17529.48145.17529Z"/>
      <path fill="currentColor" d="M15.13574,9.80176c.13525,0,.27148-.03613.39453-.1123.81299-.50439,1.67334-.94629,2.55713-1.31445.38232-.15918.56299-.59863.40381-.98096-.15918-.38184-.5957-.56201-.98096-.40381-.95703.39893-1.88916.87793-2.77002,1.42383-.35205.21826-.46045.68066-.24268,1.03271.14209.229.38721.35498.63818.35498Z"/>
      <path fill="currentColor" d="M32.10254,8.45605c.87988.37842,1.73633.83105,2.54395,1.34473.125.07959.26367.11719.40137.11719.24805,0,.49121-.12256.63379-.34766.22266-.34912.11914-.81299-.23047-1.03516-.875-.55664-1.80176-1.04688-2.75488-1.45703-.37891-.16406-.82129.01123-.98535.39258-.16406.38037.01172.82178.3916.98535Z"/>
      <path fill="currentColor" d="M38.93848,13.6084c.14746.18115.36328.2749.58008.2749.16797,0,.33594-.05566.47461-.16943.32129-.2627.36816-.73486.10547-1.05566-.65723-.80273-1.38281-1.55908-2.1582-2.24658-.31152-.27441-.78418-.24805-1.05957.06348-.27441.30957-.24609.78369.06348,1.05859.71582.63525,1.38672,1.33301,1.99414,2.07471Z"/>
      <path fill="currentColor" d="M8.58057,32.38574c-.17041-.37891-.61475-.54688-.9917-.37598-.37793.16992-.54639.61328-.37646.99121.42529.94531.93066,1.86328,1.50244,2.72852.14453.21875.3833.33691.62646.33691.14209,0,.28564-.04004.41309-.12402.34521-.22852.44043-.69336.2124-1.03906-.52783-.79883-.99414-1.64551-1.38623-2.51758Z"/>
      <path fill="currentColor" d="M7.61377,29.67676c-.24756-.92188-.42236-1.87305-.52002-2.82715-.04199-.41211-.40479-.71484-.82227-.66992-.41211.04199-.71191.41016-.66992.82227.10596,1.0332.29541,2.06445.56299,3.06348.08984.33496.39307.55566.72412.55566.06445,0,.12988-.00781.19482-.02539.3999-.10742.63721-.51855.53027-.91895Z"/>
      <path fill="currentColor" d="M43.03906,30.18555c-.39453-.13281-.81836.08301-.94727.47656-.30078.90918-.67773,1.80078-1.12109,2.64941-.19141.36719-.04883.81934.31836,1.01172.11035.05762.22949.08496.3457.08496.27051,0,.53223-.14648.66602-.40332.48047-.91895.88867-1.88574,1.21484-2.87207.12988-.39355-.08301-.81738-.47656-.94727Z"/>
      <path fill="currentColor" d="M44.35645,24.55908c.08594-.12842.13281-.28467.125-.45068-.04785-1.04053-.17871-2.08008-.3877-3.08984-.08301-.40527-.48047-.66357-.88672-.58203-.0802.0166-.14935.05383-.21667.09259l.33093-1.01837c.09161-.28143.0022-.58215-.2124-.77875.14563-.19879.20178-.45752.10693-.70465-.37207-.96924-.82422-1.91455-1.34375-2.80908-.20703-.35791-.66406-.47949-1.02539-.27197-.35742.20801-.47949.66699-.27148,1.0249.27142.46765.51678.9527.74622,1.44562l-14.13666-10.27094c.73962.08942,1.47577.21088,2.19318.39026.06055.01514.12207.02246.18262.02246.33594,0,.6416-.22705.72656-.56787.10059-.40186-.14355-.80908-.5459-.90967-1.00293-.25098-2.03711-.42285-3.07324-.51074-.3847-.02032-.72711.24567-.79315.62384l-.4339-.31525c-.2627-.19043-.61914-.19043-.88184,0l-.25409.18457c-.1087-.31616-.40839-.54022-.75128-.51025-1.03662.07617-2.07227.23584-3.0791.4751-.40283.09521-.65186.49951-.55615.90283.08154.34473.38916.57666.729.57666.05713,0,.11572-.00635.17383-.02051.65405-.15503,1.32275-.26019,1.9942-.34155l-14.13068,10.26654c.25769-.55316.53357-1.09845.84595-1.62177.2124-.35547.09619-.81592-.25977-1.02832s-.81592-.09668-1.02832.25977c-.53271.89258-.99609,1.8335-1.37793,2.79688-.11212.28351-.03723.59277.16217.79797l-.07574.05505c-.2627.19092-.37256.52979-.27246.83887l.24475.75323c-.0271-.00928-.04858-.02771-.07727-.034-.40479-.09082-.80469.16699-.89307.57178-.22168,1.00928-.36377,2.04785-.42236,3.08594-.02295.41357.29346.76807.70654.7915.01465.00049.02881.00098.04297.00098.39502,0,.72559-.30859.74854-.70752.04559-.81366.15875-1.6239.31311-2.42084l5.4043,16.63269c-.34985-.32544-.68719-.66425-1.00891-1.01459-.27979-.30469-.75439-.3252-1.06006-.0459-.30518.28027-.3252.75488-.04541,1.05957.70166.76465,1.46924,1.47754,2.28271,2.12109.1377.10938.30176.16211.46484.16211.05005,0,.09662-.02283.14569-.03271.13934.18097.35529.29443.59259.29443h1.41626c-.12708.065-.24286.1543-.31812.28809-.20166.36133-.07178.81836.29004,1.02051.9082.50586,1.8623.94238,2.83545,1.2959.08447.03027.1709.04492.25586.04492.30664,0,.59424-.18945.70508-.49414.14111-.38867-.05957-.81934-.44922-.96094-.89661-.32568-1.77563-.72736-2.61285-1.19434h17.49371c-.29242.16278-.58392.32819-.8833.47363-.37305.18066-.52832.62988-.34766,1.00195.12988.26758.39746.42285.67578.42285.10938,0,.2207-.02441.32617-.0752.93164-.45215,1.83398-.9834,2.68457-1.58008.19379-.13623.29224-.34802.3064-.56732.04089-.05914.07599-.12329.09888-.1944l6.06653-18.66815c.16803.86414.2807,1.74823.32214,2.63593.00684.15234.05859.29199.14258.40625-.08008.11914-.12598.26221-.12598.41602,0,.95996-.07617,1.9248-.22656,2.86816-.06543.40918.21289.79395.62207.8584.04004.00684.08008.00977.11914.00977.3623,0,.68066-.2627.73926-.63184.16309-1.02148.24609-2.06543.24609-3.10449,0-.16504-.05273-.31738-.14355-.44092ZM35.33691,39.22852H14.6626l-6.38867-19.66309L25,7.41309l16.72656,12.15234-6.38965,19.66309Z"/>
      <path fill="currentColor" d="M39.44043,35.74805c-.57129.7666-1.20996,1.49414-1.89844,2.16309-.29688.28906-.30273.76367-.01465,1.06152.14746.15039.34277.22656.53809.22656.18848,0,.37695-.07031.52344-.21191.74414-.72461,1.43555-1.5127,2.05469-2.34277.24707-.33203.17871-.80176-.15332-1.0498-.33398-.24707-.80273-.17773-1.0498.15332Z"/>
      <path fill="currentColor" d="M30.17188,42.24609c-.91797.27441-1.86426.47656-2.81152.59961-.41113.05371-.7002.43066-.64746.84082.0498.37793.37207.65332.74316.65332.03223,0,.06543-.00195.09766-.00586,1.02734-.13477,2.05273-.35352,3.04785-.65039.39648-.11914.62207-.53711.50391-.93359-.11914-.39648-.53809-.62207-.93359-.50391Z"/>
      <path fill="currentColor" d="M24.48584,42.99219c-.95898-.02637-1.9209-.12988-2.85938-.30859-.40771-.07715-.79932.19043-.87646.59766s.18994.7998.59717.87695c1.0166.19238,2.05859.30469,3.09668.33398h.02148c.4043,0,.73779-.32227.74902-.72949.01172-.41406-.31445-.75879-.72852-.77051Z"/>
    </g>
  </g>
</svg>