<?xml version="1.0" encoding="UTF-8"?>
<svg id="Layer_2" data-name="Layer 2" xmlns="http://www.w3.org/2000/svg" viewBox="0 0 50 50">
  <defs>
    <style>
      .cls-1 {
        fill: none;
      }
    </style>
  </defs>
  <g id="Icon">
    <rect class="cls-1" width="50" height="50"/>
    <path fill="currentColor" d="M43.75,12.5c0-1.72589-1.39911-3.125-3.125-3.125-1.46594,0-2.68695,1.01331-3.02423,2.375H9.375c-.41406,0-.75.33594-.75.75v21.97577c-1.36169.33728-2.375,1.55829-2.375,3.02423,0,1.72589,1.39911,3.125,3.125,3.125,1.46594,0,2.68695-1.01331,3.02423-2.375h28.22577c.41406,0,.75-.33594.75-.75V15.52423c1.36169-.33728,2.375-1.55829,2.375-3.02423ZM12.39923,36.75c-.27747-1.12024-1.15399-1.99677-2.27423-2.27423V13.25h27.47577c.27747,1.12024,1.15399,1.99677,2.27423,2.27423v21.22577H12.39923Z"/>
  </g>
</svg>