<?xml version="1.0" encoding="UTF-8"?>
<svg id="Layer_2" data-name="Layer 2" xmlns="http://www.w3.org/2000/svg" viewBox="0 0 50 50">
  <defs>
    <style>
      .cls-1 {
        fill: none;
      }
    </style>
  </defs>
  <g id="Icon">
    <rect class="cls-1" width="50" height="50"/>
    <g>
      <path fill="currentColor" d="M40.625,11.75H9.375c-.41406,0-.75.33594-.75.75v21.97577c-1.36169.33728-2.375,1.55829-2.375,3.02423,0,1.72589,1.39911,3.125,3.125,3.125,1.46594,0,2.68695-1.01331,3.02423-2.375h28.22577c.41406,0,.75-.33594.75-.75V12.5c0-.41406-.33594-.75-.75-.75ZM39.875,36.75H12.39923c-.27747-1.12024-1.15399-1.99677-2.27423-2.27423V13.25h29.75v23.5Z"/>
      <path fill="currentColor" d="M7,25v-1.5c0-.41406-.33594-.75-.75-.75s-.75.33594-.75.75v1.5c0,.41406.33594.75.75.75s.75-.33594.75-.75Z"/>
      <path fill="currentColor" d="M6.25,21.7251c.41406,0,.75-.33594.75-.75v-2.5249c0-.41406-.33594-.75-.75-.75s-.75.33594-.75.75v2.5249c0,.41406.33594.75.75.75Z"/>
      <path fill="currentColor" d="M6.25,16.67529c.41406,0,.75-.33594.75-.75v-2.52539c0-.41406-.33594-.75-.75-.75s-.75.33594-.75.75v2.52539c0,.41406.33594.75.75.75Z"/>
      <path fill="currentColor" d="M6.25,11.625c.41406,0,.75-.33594.75-.75v-.75h.75c.41406,0,.75-.33594.75-.75s-.33594-.75-.75-.75h-1.5c-.41406,0-.75.33594-.75.75v1.5c0,.41406.33594.75.75.75Z"/>
      <path fill="currentColor" d="M17.19971,10.125h3.15039c.41406,0,.75-.33594.75-.75s-.33594-.75-.75-.75h-3.15039c-.41406,0-.75.33594-.75.75s.33594.75.75.75Z"/>
      <path fill="currentColor" d="M10.8999,10.125h3.1499c.41406,0,.75-.33594.75-.75s-.33594-.75-.75-.75h-3.1499c-.41406,0-.75.33594-.75.75s.33594.75.75.75Z"/>
      <path fill="currentColor" d="M23.5,10.125h1.5c.41406,0,.75-.33594.75-.75s-.33594-.75-.75-.75h-1.5c-.41406,0-.75.33594-.75.75s.33594.75.75.75Z"/>
    </g>
  </g>
</svg>