<?xml version="1.0" encoding="UTF-8"?>
<svg id="Layer_2" data-name="Layer 2" xmlns="http://www.w3.org/2000/svg" viewBox="0 0 50 50">
  <defs>
    <style>
      .cls-1 {
        fill: none;
      }
    </style>
  </defs>
  <g id="Icon">
    <g>
      <circle fill="currentColor" cx="25" cy="24.99951" r="3.125"/>
      <path fill="currentColor" d="M40.625,11.75H9.375c-.41406,0-.75.33594-.75.75v25c0,.41406.33594.75.75.75h31.25c.41406,0,.75-.33594.75-.75V12.5c0-.41406-.33594-.75-.75-.75ZM39.875,36.75H10.125V13.25h29.75v23.5Z"/>
      <path fill="currentColor" d="M6.25,22.75c-.41406,0-.75.33594-.75.75v1.5c0,.41406.33594.75.75.75s.75-.33594.75-.75v-1.5c0-.41406-.33594-.75-.75-.75Z"/>
      <path fill="currentColor" d="M6.25,17.7002c-.41406,0-.75.33594-.75.75v2.5249c0,.41406.33594.75.75.75s.75-.33594.75-.75v-2.5249c0-.41406-.33594-.75-.75-.75Z"/>
      <path fill="currentColor" d="M6.25,12.6499c-.41406,0-.75.33594-.75.75v2.52539c0,.41406.33594.75.75.75s.75-.33594.75-.75v-2.52539c0-.41406-.33594-.75-.75-.75Z"/>
      <path fill="currentColor" d="M7.75,8.625h-1.5c-.41406,0-.75.33594-.75.75v1.5c0,.41406.33594.75.75.75s.75-.33594.75-.75v-.75h.75c.41406,0,.75-.33594.75-.75s-.33594-.75-.75-.75Z"/>
      <path fill="currentColor" d="M17.19971,10.125h3.15039c.41406,0,.75-.33594.75-.75s-.33594-.75-.75-.75h-3.15039c-.41406,0-.75.33594-.75.75s.33594.75.75.75Z"/>
      <path fill="currentColor" d="M10.8999,10.125h3.1499c.41406,0,.75-.33594.75-.75s-.33594-.75-.75-.75h-3.1499c-.41406,0-.75.33594-.75.75s.33594.75.75.75Z"/>
      <path fill="currentColor" d="M23.5,10.125h1.5c.41406,0,.75-.33594.75-.75s-.33594-.75-.75-.75h-1.5c-.41406,0-.75.33594-.75.75s.33594.75.75.75Z"/>
    </g>
    <rect class="cls-1" width="50" height="50"/>
  </g>
</svg>