<?xml version="1.0" encoding="UTF-8"?>
<svg id="Layer_2" data-name="Layer 2" xmlns="http://www.w3.org/2000/svg" viewBox="0 0 50 50">
  <defs>
    <style>
      .cls-1 {
        fill: none;
      }
    </style>
  </defs>
  <g id="Icon">
    <rect class="cls-1" width="50" height="50"/>
    <path fill="currentColor" d="M40.625,6.25c-1.72589,0-3.125,1.39911-3.125,3.125,0,.59021.17322,1.13599.45758,1.60687l-26.97571,26.97571c-.47089-.28436-1.01666-.45758-1.60687-.45758-1.72589,0-3.125,1.39911-3.125,3.125s1.39911,3.125,3.125,3.125,3.125-1.39911,3.125-3.125c0-.59021-.17322-1.13599-.45758-1.60687l26.97571-26.97571c.47089.28436,1.01666.45758,1.60687.45758,1.72589,0,3.125-1.39911,3.125-3.125s-1.39911-3.125-3.125-3.125Z"/>
  </g>
</svg>