<?xml version="1.0" encoding="UTF-8"?>
<svg id="Layer_2" data-name="Layer 2" xmlns="http://www.w3.org/2000/svg" viewBox="0 0 50 50">
  <defs>
    <style>
      .cls-1 {
        fill: none;
      }
    </style>
  </defs>
  <g id="Icon">
    <path fill="currentColor" d="M42.95856,17.20581c-.45148-2.73077-1.94434-5.1496-4.31696-6.87671-4.24023-3.0874-10.52441-3.41504-16.39551-.85645-.31281.13623-.59729.27985-.86871.42712-.42755-.25867-.92334-.41608-1.45947-.41608-1.56543,0-2.83441,1.26904-2.83441,2.83441,0,1.15363.69177,2.14203,1.68085,2.58441.43591,1.75427,1.76868,3.61401,3.16046,5.55011,2.27039,3.15863,4.5943,6.40338,3.75067,9.64349-.30273-.11029-.62518-.18011-.96606-.18011-1.56543,0-2.83441,1.26904-2.83441,2.83441,0,.56683.17053,1.09216.45709,1.5351-.20911.07648-.41486.11603-.60992.08948-1.35889-.19434-2.59229-3.13965-3.78516-5.9873-1.76099-4.20465-3.74335-8.92126-7.54285-9.95197-.15826-1.41553-1.34503-2.52014-2.80273-2.52014-1.56543,0-2.83441,1.26898-2.83441,2.83441,0,.46594.12317.89905.32239,1.2868-.03241.04779-.07092.09607-.1004.14337-2.43463,3.90448.22327,12.77338,2.56567,17.75616-.43866.49915-.7135,1.14606-.7135,1.86273,0,1.56543,1.26898,2.83441,2.83441,2.83441s2.83441-1.26898,2.83441-2.83441-1.26898-2.83441-2.83441-2.83441c-.30396,0-.59113.06036-.8656.14893-2.28455-4.88464-4.37854-12.70966-2.64618-15.93341.42285.25073.9104.40424,1.43762.40424,1.14026,0,2.11676-.67731,2.56659-1.64807,3.00952.96631,4.802,5.22559,6.39569,9.03046,1.47803,3.5293,2.75488,6.57715,4.95557,6.89355.66626.09113,1.34827-.08368,2.05505-.52094.35077.1554.73676.24542,1.14508.24542,1.56543,0,2.83441-1.26898,2.83441-2.83441,0-.64636-.22479-1.23511-.58905-1.71198,1.4566-4.10748-1.41406-8.12549-3.81219-11.4613-1.14886-1.59839-2.24365-3.13452-2.74225-4.47321,1.33447-.22992,2.35199-1.38568,2.35199-2.78583,0-.46246-.12128-.89258-.31775-1.27826.13275-.06458.26556-.12921.41016-.1922,5.38965-2.34473,11.10352-2.0791,14.91406.69385,1.99689,1.45398,3.2627,3.47791,3.68359,5.76202-1.11346.3822-1.91895,1.42682-1.91895,2.66998,0,1.56537,1.26904,2.83441,2.83441,2.83441s2.83441-1.26904,2.83441-2.83441c0-1.35889-.9574-2.49176-2.2337-2.7677Z"/>
    <rect class="cls-1" width="50" height="50"/>
  </g>
</svg>