<?xml version="1.0" encoding="UTF-8"?>
<svg id="Layer_2" data-name="Layer 2" xmlns="http://www.w3.org/2000/svg" viewBox="0 0 43.75002 43.75002">
  <g id="Layer_1-2" data-name="Layer 1">
    <path fill="currentColor" d="M43.44611,30.80513l-5.15045-2.32269c-.36554-.16486-.79559.07489-.79559.44348v1.56921h-21.20135c-.30457-1.53497-1.51727-2.74396-3.05359-3.0448V6.25002h1.57764c.36859,0,.60834-.43011.44348-.79559L12.94354.30391c-.18274-.40521-.70428-.40521-.88696,0l-2.32275,5.15051c-.16486.36548.07489.79559.44348.79559h1.56781v21.20129c-1.53186.30396-2.73987,1.51196-3.04382,3.04382l-7.95129.00341c-.41406,0-.75.33594-.75.75s.33594.75.75.75l7.95032-.00341c.30084,1.53632,1.50983,2.74902,3.0448,3.05359l.00342,7.95129c0,.41406.33594.75.75.75s.75-.33594.75-.75l-.00342-7.95032c1.53949-.30145,2.75311-1.51508,3.05457-3.05457h21.20038v1.57623c0,.36859.43005.60834.79559.44348l5.15045-2.32275c.40521-.18268.40521-.70422,0-.88696ZM12.5,33.62502c-1.30957,0-2.375-1.06543-2.375-2.375s1.06543-2.375,2.375-2.375,2.375,1.06543,2.375,2.375-1.06543,2.375-2.375,2.375Z"/>
  </g>
</svg>