<?xml version="1.0" encoding="UTF-8"?>
<svg id="Layer_2" data-name="Layer 2" xmlns="http://www.w3.org/2000/svg" viewBox="0 0 50 50">
  <defs>
    <style>
      .cls-1 {
        fill: none;
      }
    </style>
  </defs>
  <g id="Icon">
    <rect class="cls-1" width="50" height="50"/>
    <g>
      <circle fill="currentColor" cx="25" cy="25" r="3.125"/>
      <path fill="currentColor" d="M43.75,25c0-1.46594-1.01331-2.68695-2.375-3.02423v-9.57654c1.36169-.33728,2.375-1.55829,2.375-3.02423,0-1.72589-1.39911-3.125-3.125-3.125-1.46594,0-2.68695,1.01331-3.02423,2.375h-9.57654c-.33728-1.36169-1.55829-2.375-3.02423-2.375s-2.68695,1.01331-3.02423,2.375h-9.57654c-.33728-1.36169-1.55829-2.375-3.02423-2.375-1.72589,0-3.125,1.39911-3.125,3.125,0,1.46594,1.01331,2.68695,2.375,3.02423v9.57654c-1.36169.33728-2.375,1.55829-2.375,3.02423s1.01331,2.68695,2.375,3.02423v9.57654c-1.36169.33728-2.375,1.55829-2.375,3.02423,0,1.72589,1.39911,3.125,3.125,3.125,1.46594,0,2.68695-1.01331,3.02423-2.375h9.57654c.33728,1.36169,1.55829,2.375,3.02423,2.375s2.68695-1.01331,3.02423-2.375h9.57654c.33728,1.36169,1.55829,2.375,3.02423,2.375,1.72589,0,3.125-1.39911,3.125-3.125,0-1.46594-1.01331-2.68695-2.375-3.02423v-9.57654c1.36169-.33728,2.375-1.55829,2.375-3.02423ZM39.875,28.02423v9.57654c-1.12024.27747-1.99677,1.15399-2.27423,2.27423h-9.57654c-.33728-1.36169-1.55829-2.375-3.02423-2.375s-2.68695,1.01331-3.02423,2.375h-9.57654c-.27747-1.12024-1.15399-1.99677-2.27423-2.27423v-9.57654c1.36169-.33728,2.375-1.55829,2.375-3.02423s-1.01331-2.68695-2.375-3.02423v-9.57654c1.12024-.27747,1.99677-1.15399,2.27423-2.27423h9.57654c.33728,1.36169,1.55829,2.375,3.02423,2.375s2.68695-1.01331,3.02423-2.375h9.57654c.27747,1.12024,1.15399,1.99677,2.27423,2.27423v9.57654c-1.36169.33728-2.375,1.55829-2.375,3.02423s1.01331,2.68695,2.375,3.02423Z"/>
    </g>
  </g>
</svg>