<?xml version="1.0" encoding="UTF-8"?>
<svg id="Layer_2" data-name="Layer 2" xmlns="http://www.w3.org/2000/svg" viewBox="0 0 43.75 43.75">
  <g id="Icon">
    <g>
      <path fill="currentColor" d="M21.87503,25.74809c-2.13648,0-3.87456-1.73798-3.87456-3.87433s1.73808-3.87433,3.87456-3.87433,3.87456,1.73798,3.87456,3.87433-1.73808,3.87433-3.87456,3.87433ZM21.87503,19.49916c-1.30942,0-2.37473,1.06525-2.37473,2.37459s1.06531,2.37459,2.37473,2.37459,2.37473-1.06525,2.37473-2.37459-1.06531-2.37459-2.37473-2.37459Z"/>
      <path fill="currentColor" d="M21.87503,27.25284c.24997,0,.50995-.02002.74992-.05999v15.79727c0,.41991-.33999.75988-.74992.75988s-.74992-.33997-.74992-.75988v-15.79727c.23996.03997.49994.05999.74992.05999Z"/>
      <path fill="currentColor" d="M1.28733.21745l17.35808,17.36701c-.39998.3-.75992.65992-1.05988,1.05982L.2175,1.28727C-.0725.98733-.0725.51744.2175.21745.51746-.07248.98738-.07248,1.28733.21745Z"/>
      <path fill="currentColor" d="M43.20263,16.55466l-16.0082,4.57923c-.05999-.50992-.19999-.99983-.40999-1.44976l16.0082-4.57923c.40999-.10997.80991.11997.92989.51993.11003.39989-.11998.80986-.5199.92983Z"/>
    </g>
  </g>
</svg>