<?xml version="1.0" encoding="UTF-8"?>
<svg id="Layer_2" data-name="Layer 2" xmlns="http://www.w3.org/2000/svg" viewBox="0 0 50 50">
  <defs>
    <style>
      .cls-1 {
        fill: none;
      }
    </style>
  </defs>
  <g id="Icon">
    <g>
      <path fill="currentColor" d="M43.75,38.75h-24.25v-7.875h2.625c.41406,0,.75-.33594.75-.75s-.33594-.75-.75-.75h-2.625V8.25c0-.41406-.33594-.75-.75-.75s-.75.33594-.75.75v30.5H6.25c-.41406,0-.75.33594-.75.75s.33594.75.75.75h37.5c.41406,0,.75-.33594.75-.75s-.33594-.75-.75-.75Z"/>
      <path fill="currentColor" d="M25.125,30.875h2.25v.75c0,.41406.33594.75.75.75s.75-.33594.75-.75v-1.5c0-.41406-.33594-.75-.75-.75h-3c-.41406,0-.75.33594-.75.75s.33594.75.75.75Z"/>
      <path fill="currentColor" d="M28.125,33.875c-.41406,0-.75.33594-.75.75v3c0,.41406.33594.75.75.75s.75-.33594.75-.75v-3c0-.41406-.33594-.75-.75-.75Z"/>
    </g>
    <rect class="cls-1" width="50" height="50"/>
  </g>
</svg>