<?xml version="1.0" encoding="UTF-8"?>
<svg id="Layer_2" data-name="Layer 2" xmlns="http://www.w3.org/2000/svg" viewBox="0 0 50 50">
  <defs>
    <style>
      .cls-1 {
        fill: none;
      }
    </style>
  </defs>
  <g id="Icon">
    <rect class="cls-1" x="0" y="0" width="50" height="50" transform="translate(50 50) rotate(-180)"/>
    <path fill="currentColor" d="M41.5918,20.5376L11.60205,4.58789c-.36426-.19385-.81982-.05566-1.01416.31006-.0589.11084-.07794.2287-.07861.34607-.00104.01605-.00928.02972-.00928.04602v39.5957c0,.41406.33594.75.75.75s.75-.33594.75-.75v-9.74542c2.40436,4.93927,7.45996,8.35968,13.3125,8.35968,8.16797,0,14.8125-6.64453,14.8125-14.8125,0-3.28735-1.0896-6.31769-2.90851-8.77771l3.67023,1.95203c.1123.05957.2334.08789.35156.08789.26855,0,.52832-.14453.66309-.39795.19434-.36572.05566-.81982-.30957-1.01416ZM25.3125,42c-7.34033,0-13.3125-5.97168-13.3125-13.3125,0-7.34033,5.97217-13.3125,13.3125-13.3125,7.34082,0,13.3125,5.97217,13.3125,13.3125,0,7.34082-5.97168,13.3125-13.3125,13.3125ZM25.3125,13.875c-5.85254,0-10.90814,3.42065-13.3125,8.35992V6.49823l13.92853,7.40796c-.20587-.00854-.40808-.03119-.61603-.03119Z"/>
  </g>
</svg>