<?xml version="1.0" encoding="UTF-8"?>
<svg id="Layer_2" data-name="Layer 2" xmlns="http://www.w3.org/2000/svg" viewBox="0 0 43.75 43.75">
  <g id="Layer_1-2" data-name="Layer 1">
    <g>
      <path fill="currentColor" d="M35.125,4.05499V.75c0-.41003-.34003-.75-.75-.75s-.75.33997-.75.75v3.30499c.23999-.03998.5-.06.75-.06s.51001.02002.75.06Z"/>
      <path fill="currentColor" d="M43,22.625c.41406,0,.75-.33594.75-.75s-.33594-.75-.75-.75h-7.875v-6.44c-.23999.03998-.5.06-.75.06s-.51001-.02002-.75-.06v6.44h-11v-11h6.44c-.03998-.23999-.06-.5-.06-.75s.02002-.51001.06-.75h-6.44V.75c0-.41406-.33594-.75-.75-.75s-.75.33594-.75.75v7.875h-11V.75c0-.41406-.33594-.75-.75-.75s-.75.33594-.75.75v7.875H.75c-.40997,0-.75.33997-.75.75,0,.40997.34003.75.75.75h7.875v11H.75c-.41406,0-.75.33594-.75.75s.33594.75.75.75h7.875v11H.75c-.41406,0-.75.33594-.75.75s.33594.75.75.75h7.875v7.875c0,.41406.33594.75.75.75s.75-.33594.75-.75v-7.875h11v7.875c0,.41406.33594.75.75.75s.75-.33594.75-.75v-7.875h11v7.875c0,.40997.34003.75.75.75s.75-.34003.75-.75v-7.875h7.875c.41406,0,.75-.33594.75-.75s-.33594-.75-.75-.75h-7.875v-11h7.875ZM21.125,22.625v11h-11v-11h11ZM21.125,10.125v11h-11v-11h11ZM33.625,33.625h-11v-11h11v11Z"/>
      <path fill="currentColor" d="M43,10.125c.40997,0,.75-.34003.75-.75,0-.41003-.34003-.75-.75-.75h-3.30499c.03998.23999.06.5.06.75s-.02002.51001-.06.75h3.30499Z"/>
      <path fill="currentColor" d="M34.37695,13.24805c2.13672,0,3.875-1.73828,3.875-3.875s-1.73828-3.875-3.875-3.875-3.875,1.73828-3.875,3.875,1.73828,3.875,3.875,3.875ZM34.37695,6.99805c1.30957,0,2.375,1.06543,2.375,2.375s-1.06543,2.375-2.375,2.375-2.375-1.06543-2.375-2.375,1.06543-2.375,2.375-2.375Z"/>
    </g>
  </g>
</svg>