<?xml version="1.0" encoding="UTF-8"?>
<svg id="Layer_2" data-name="Layer 2" xmlns="http://www.w3.org/2000/svg" viewBox="0 0 43.75 43.75">
  <g id="Icon">
    <g>
      <path fill="currentColor" d="M43.53016,42.46907l-16.31209-16.31209c-.00898-.00898-.02113-.01185-.03047-.02027,2.52577-2.77676,4.07845-6.4543,4.07845-10.50368C31.26605,6.99914,24.26691,0,15.63303,0S0,6.99914,0,15.63303s6.99914,15.63303,15.63303,15.63303c4.04938,0,7.72693-1.55268,10.50368-4.07845.00843.00934.0113.0215.02027.03047l16.31209,16.31209c.14656.14656.33806.21984.53055.21984s.38399-.07328.53055-.21984c.29312-.29312.29312-.76797,0-1.06109ZM15.63303,29.76528c-7.79257,0-14.13226-6.33974-14.13226-14.13226S7.84045,1.50077,15.63303,1.50077s14.13226,6.33968,14.13226,14.13226-6.33968,14.13226-14.13226,14.13226Z"/>
      <path fill="currentColor" d="M25,14.875h-8.625V6.25c0-.41406-.33594-.75-.75-.75s-.75.33594-.75.75v8.625H6.25c-.41406,0-.75.33594-.75.75s.33594.75.75.75h8.625v8.625c0,.41406.33594.75.75.75s.75-.33594.75-.75v-8.625h8.625c.41406,0,.75-.33594.75-.75s-.33594-.75-.75-.75Z"/>
    </g>
  </g>
</svg>