<?xml version="1.0" encoding="UTF-8"?>
<svg id="Layer_2" data-name="Layer 2" xmlns="http://www.w3.org/2000/svg" viewBox="0 0 50 50">
  <defs>
    <style>
      .cls-1 {
        fill: none;
      }
    </style>
  </defs>
  <g id="Icon">
    <path fill="currentColor" d="M25,9.37c4.42999,0,8.42999,1.83997,11.27002,4.81l1.59998-1.60004,1.45001,5.41003-.41003-.10999-1.33997-.36005-3.66003-.97998,1.65002-1.64996c-2.66998-2.78003-6.41998-4.52002-10.56-4.52002-8.06,0-14.62,6.57001-14.62,14.63s6.56,14.62,14.62,14.62c4.03003,0,7.67999-1.64001,10.33002-4.29004l.71997.72003c-2.83002,2.82001-6.72998,4.57001-11.04999,4.57001-8.63,0-15.62-6.98999-15.62-15.62s6.98999-15.63,15.62-15.63Z"/>
    <rect class="cls-1" x="0" y="0" width="50" height="50" transform="translate(50 50) rotate(-180)"/>
  </g>
</svg>