<?xml version="1.0" encoding="UTF-8"?>
<svg id="Layer_2" data-name="Layer 2" xmlns="http://www.w3.org/2000/svg" viewBox="0 0 50 50">
  <defs>
    <style>
      .cls-1 {
        fill: none;
      }
    </style>
  </defs>
  <g id="Icon">
    <g>
      <path fill="currentColor" d="M31.97874,7.08002c-6.03998,0-10.92999,4.89996-10.92999,10.94,0,2.75,1.01001,5.26001,2.69,7.17999L7.29874,41.64001c-.28998.28998-.28998.76996,0,1.06.15002.14996.33997.21997.52997.21997s.38-.07001.53003-.21997l16.44-16.44c1.91998,1.67999,4.42999,2.69,7.17999,2.69,6.03998,0,10.94-4.89001,10.94-10.92999s-4.90002-10.94-10.94-10.94ZM31.97874,27.45001c-2.33002,0-4.46002-.85004-6.10999-2.25-.19-.16003-.38-.33002-.56-.51001s-.35004-.37-.51001-.56c-1.40002-1.65002-2.25-3.78003-2.25-6.10999,0-5.21002,4.22998-9.44,9.42999-9.44,5.21002,0,9.44,4.22998,9.44,9.44,0,5.20001-4.22998,9.42999-9.44,9.42999Z"/>
      <path fill="currentColor" d="M39.79667,17.26752h-7.0625v-7.0625c0-.41406-.33594-.75-.75-.75s-.75.33594-.75.75v7.0625h-7.06299c-.41406,0-.75.33594-.75.75s.33594.75.75.75h7.06299v7.0625c0,.41406.33594.75.75.75s.75-.33594.75-.75v-7.0625h7.0625c.41406,0,.75-.33594.75-.75s-.33594-.75-.75-.75Z"/>
    </g>
    <rect class="cls-1" width="50" height="50"/>
  </g>
</svg>