<?xml version="1.0" encoding="UTF-8"?>
<svg id="Layer_2" data-name="Layer 2" xmlns="http://www.w3.org/2000/svg" viewBox="0 0 43.75 43.75">
  <g id="Icon">
    <g>
      <path fill="currentColor" d="M24.34328,6.30511h-1.71759V.75c0-.41406-.33595-.75-.75003-.75s-.75003.33594-.75003.75v5.55511h-1.71753c-.30653,0-.50942.31824-.38002.59613l2.46755,5.30127c.1504.32312.60976.32312.76016,0l2.46755-5.30127c.12934-.27789-.07355-.59613-.38008-.59613Z"/>
      <path fill="currentColor" d="M19.40817,37.44489h1.71759v5.55511c0,.41406.33595.75.75003.75s.75003-.33594.75003-.75v-5.55511h1.71753c.30653,0,.50942-.31824.38002-.59613l-2.46755-5.30127c-.1504-.32312-.60976-.32312-.76016,0l-2.46755,5.30127c-.12934.27789.07355.59613.38008.59613Z"/>
      <path fill="currentColor" d="M42.99997,21.125h-2.42873v-1.71753c0-.30652-.31825-.5094-.59615-.38l-5.30151,2.46747c-.32307.15039-.32307.60974,0,.76007l5.30151,2.46753c.2779.12933.59615-.07355.59615-.38007v-1.71747h2.42873c.41408,0,.75003-.33594.75003-.75s-.33595-.75-.75003-.75Z"/>
      <path fill="currentColor" d="M.75003,22.62497h2.42873v1.71753c0,.30652.31825.5094.59615.38l5.30151-2.46747c.32307-.15039.32307-.60974,0-.76007l-5.30151-2.46753c-.2779-.12933-.59615.07355-.59615.38007v1.71747H.75003c-.41408,0-.75003.33594-.75003.75s.33595.75.75003.75Z"/>
      <path fill="currentColor" d="M31.24902,28.875H12.5376c-.41406,0-.75-.33594-.75-.75v-12.5c0-.41406.33594-.75.75-.75h18.71143c.41406,0,.75.33594.75.75v12.5c0,.41406-.33594.75-.75.75ZM13.2876,27.375h17.21143v-11H13.2876v11Z"/>
    </g>
  </g>
</svg>